<svg width="112" height="18" viewBox="0 0 112 18" fill="none" xmlns="http://www.w3.org/2000/svg">
<path d="M0.942649 14H2.52788V9.21875H5.39151C8.44052 9.21875 9.81481 7.36506 9.81481 5.05114C9.81481 2.73722 8.44052 0.909091 5.36595 0.909091H0.942649V14ZM2.52788 7.8125V2.31534H5.31481C7.44336 2.31534 8.25515 3.47869 8.25515 5.05114C8.25515 6.62358 7.44336 7.8125 5.34038 7.8125H2.52788ZM16.1749 14.2045C18.1692 14.2045 19.6266 13.2074 20.0868 11.7244L18.6294 11.3153C18.2459 12.3381 17.3574 12.8494 16.1749 12.8494C14.4043 12.8494 13.1834 11.7053 13.1131 9.60227H20.2402V8.96307C20.2402 5.30682 18.0669 4.05398 16.0215 4.05398C13.3624 4.05398 11.5982 6.15057 11.5982 9.16761C11.5982 12.1847 13.3368 14.2045 16.1749 14.2045ZM13.1131 8.2983C13.2154 6.7706 14.2956 5.40909 16.0215 5.40909C17.6578 5.40909 18.7061 6.63636 18.7061 8.2983H13.1131ZM28.5946 4.18182H22.535V14H24.0435V5.58807H28.5946V4.18182ZM32.3052 11.7756V4.18182H30.7967V14H32.5609L37.2654 6.40625V14H38.774V4.18182H37.0353L32.3052 11.7756ZM45.5256 14.2045C47.6989 14.2045 49.1307 12.875 49.3864 11.1364H47.8778C47.5966 12.2102 46.7017 12.8494 45.5256 12.8494C43.7358 12.8494 42.5852 11.3665 42.5852 9.09091C42.5852 6.86648 43.7614 5.40909 45.5256 5.40909C46.8551 5.40909 47.6477 6.22727 47.8778 7.12216H49.3864C49.1307 5.28125 47.571 4.05398 45.5 4.05398C42.8409 4.05398 41.0767 6.15057 41.0767 9.14205C41.0767 12.0824 42.7642 14.2045 45.5256 14.2045ZM50.8182 5.58807H54.0653V14H55.5739V5.58807H58.7955V4.18182H50.8182V5.58807ZM60.9959 17.6818H62.5044V12.4915H62.6323C62.9647 13.0284 63.6039 14.2045 65.4959 14.2045C67.9505 14.2045 69.6635 12.2358 69.6635 9.11648C69.6635 6.02273 67.9505 4.05398 65.4703 4.05398C63.5527 4.05398 62.9647 5.23011 62.6323 5.74148H62.4533V4.18182H60.9959V17.6818ZM62.4789 9.09091C62.4789 6.89205 63.4505 5.40909 65.2914 5.40909C67.209 5.40909 68.155 7.01989 68.155 9.09091C68.155 11.1875 67.1834 12.8494 65.2914 12.8494C63.476 12.8494 62.4789 11.3153 62.4789 9.09091ZM74.8539 14.2301C76.5669 14.2301 77.4618 13.3097 77.7686 12.6705H77.8453V14H79.3539V7.53125C79.3539 4.41193 76.976 4.05398 75.7232 4.05398C74.2402 4.05398 72.5527 4.56534 71.7857 6.35511L73.2175 6.86648C73.5499 6.15057 74.3361 5.38352 75.7743 5.38352C77.1614 5.38352 77.8453 6.11861 77.8453 7.37784V7.42898C77.8453 8.15767 77.1039 8.09375 75.3141 8.32386C73.4924 8.56037 71.5044 8.96307 71.5044 11.2131C71.5044 13.1307 72.9874 14.2301 74.8539 14.2301ZM75.084 12.875C73.8823 12.875 73.013 12.3381 73.013 11.2898C73.013 10.1392 74.0613 9.78125 75.2374 9.62784C75.8766 9.55114 77.5897 9.37216 77.8453 9.06534V10.446C77.8453 11.6733 76.8738 12.875 75.084 12.875ZM89.8288 4.18182H88.3203V12.5938H83.6158V4.18182H82.1072V14H89.8288V17.1705H91.3374V12.5938H89.8288V4.18182ZM95.0415 11.7756V4.18182H93.533V14H95.2972L100.002 6.40625V14H101.51V4.18182H99.7717L95.0415 11.7756ZM110.18 14H111.611V4.18182H107.572C105.456 4.18182 104.171 5.28764 104.171 7.09659C104.171 8.44531 104.849 9.40412 106.031 9.80682L103.634 14H105.27L107.546 10.0114H110.18V14ZM110.18 8.60511H107.393C106.325 8.60511 105.68 8.03622 105.68 7.09659C105.68 6.14418 106.395 5.5625 107.572 5.5625H110.18V8.60511Z" fill="white"/>
</svg>
